# xmcd
#
# Track frame offsets:
#	150
#	19450
#	37482
#	57909
#	73852
#	92065
#	106763
#	124663
#	141275
#	160568
#	178618
#	199048
#	214971
#	233029
#	247773
#	265568
#	282152
#	305499
#	340189
#
# Disc length: 4548 seconds
#
# Revision: 0
# Processed by: cddbd v1.5.1PL2 Copyright (c) Steve Scherf et al.
# Submitted via: audiograbber 1.83.01
#
DISCID=1311c213
DTITLE=Soundchoice - SC2409
DYEAR=1900
DGENRE=Karaoke Country
TTITLE0=Martina Mcbride - Blessed
TTITLE1=George Jones - 50,000 Names
TTITLE2=Montgomery Gentry - My Town
TTITLE3=Toby Keith - My List
TTITLE4=Diamond Rio - I Believe
TTITLE5=Dolly Parton - Hello God
TTITLE6=Rascal Flatts - I'M Movin' On
TTITLE7=Toby Keith - Courtesy Of The Red White and Blue
TTITLE8=Martina Mcbride - Blessed
TTITLE9=George Jones - 50,000 Names
TTITLE10=Montgomery Gentry - My Town
TTITLE11=Toby Keith - My List
TTITLE12=Diamond Rio - I Believe
TTITLE13=Dolly Parton - Hello God
TTITLE14=Rascal Flatts - I'M Movin' On
TTITLE15=Toby Keith - Courtesy Of The Red White and Blue
TTITLE16=Sheryl Crow and Kid Rock - Picture
TTITLE17=Sheryl Crow and Kid Rock - Picture
TTITLE18=Must Supply An Artist - Data Track
EXTD=Tracks 9-16 &18 Demos
EXTT0=
EXTT1=
EXTT2=
EXTT3=
EXTT4=
EXTT5=
EXTT6=
EXTT7=
EXTT8=
EXTT9=
EXTT10=
EXTT11=
EXTT12=
EXTT13=
EXTT14=
EXTT15=
EXTT16=
EXTT17=
EXTT18=
PLAYORDER=
